<svg width="182" height="127" viewBox="0 0 182 127" fill="none" xmlns="http://www.w3.org/2000/svg">
<path d="M51.895 106.535C49.6767 106.538 47.5348 105.725 45.877 104.251L0 63.4691L48.427 20.4191C50.2279 18.8452 52.5777 18.0466 54.9647 18.1974C57.3516 18.3482 59.5823 19.4362 61.1707 21.2242C62.7592 23.0122 63.5768 25.3555 63.4453 27.7436C63.3139 30.1317 62.2441 32.3711 60.469 33.9741L27.296 63.4691L57.924 90.6861C59.2975 91.908 60.2674 93.5183 60.7051 95.3038C61.1429 97.0893 61.0279 98.9656 60.3753 100.684C59.7228 102.403 58.5635 103.883 57.0511 104.928C55.5386 105.973 53.7444 106.534 51.906 106.536L51.895 106.535ZM132.995 106.518L181.422 63.4681L135.546 22.6861C133.743 21.1317 131.4 20.3491 129.024 20.5076C126.649 20.666 124.431 21.7527 122.85 23.5328C121.269 25.313 120.452 27.6436 120.575 30.0213C120.698 32.399 121.752 34.6328 123.508 36.2401L154.136 63.4681L120.96 92.9521C119.178 94.5528 118.102 96.7935 117.967 99.1848C117.831 101.576 118.648 103.924 120.237 105.716C121.827 107.507 124.061 108.597 126.451 108.748C128.842 108.898 131.194 108.096 132.996 106.518H132.995ZM90.587 119.364L108.72 10.5641C108.924 9.38671 108.894 8.18059 108.63 7.01513C108.366 5.84966 107.875 4.74785 107.183 3.77309C106.492 2.79834 105.615 1.96989 104.603 1.33541C103.59 0.700927 102.462 0.272948 101.283 0.0760965C100.105 -0.120755 98.8988 -0.082592 97.735 0.188389C96.5712 0.45937 95.4725 0.95782 94.5021 1.65505C93.5317 2.35229 92.7087 3.23454 92.0806 4.25105C91.4524 5.26756 91.0315 6.39825 90.842 7.57806L72.708 116.378C72.5116 117.553 72.5485 118.755 72.8168 119.915C73.085 121.076 73.5793 122.172 74.2713 123.141C74.9633 124.11 75.8396 124.934 76.85 125.564C77.8604 126.195 78.9852 126.62 80.16 126.816C80.6561 126.895 81.1577 126.935 81.66 126.935C83.8033 126.932 85.8762 126.17 87.5111 124.784C89.146 123.398 90.2372 121.478 90.591 119.364H90.587Z" fill="black"/>
</svg>
